<svg xmlns="http://www.w3.org/2000/svg" xmlns:xlink="http://www.w3.org/1999/xlink" width="500" zoomAndPan="magnify" viewBox="0 0 375 374.999991" height="500" preserveAspectRatio="xMidYMid meet" version="1.0"><defs><g/><clipPath id="0d2ae43e71"><path d="M 37.5 197.632812 L 314.980469 197.632812 L 314.980469 223.191406 L 37.5 223.191406 Z M 37.5 197.632812 " clip-rule="nonzero"/></clipPath></defs><rect x="-37.5" width="450" fill="#ffffff" y="-37.499999" height="449.999989" fill-opacity="1"/><rect x="-37.5" width="450" fill="#fbfaf9" y="-37.499999" height="449.999989" fill-opacity="1"/><g fill="#000000" fill-opacity="1"><g transform="translate(66.870832, 271.538149)"><g><path d="M 31.296875 -15.21875 L 95.96875 -15.21875 L 95.96875 0 L 14.359375 0 L 14.359375 -127.109375 L 31.296875 -127.109375 Z M 31.296875 -15.21875 "/></g></g></g><g fill="#000000" fill-opacity="1"><g transform="translate(156.494882, 271.538149)"><g/></g></g><g fill="#000000" fill-opacity="1"><g transform="translate(190.870923, 271.538149)"><g><path d="M 89.234375 -89.921875 C 88.890625 -97.992188 85.875 -104.320312 80.1875 -108.90625 C 74.507812 -113.488281 67.035156 -115.78125 57.765625 -115.78125 C 48.421875 -115.78125 41.238281 -113.863281 36.21875 -110.03125 C 31.207031 -106.195312 28.703125 -100.675781 28.703125 -93.46875 C 28.703125 -89.601562 29.796875 -86.285156 31.984375 -83.515625 C 34.179688 -80.753906 38.101562 -78.710938 43.75 -77.390625 L 80.0625 -69.078125 C 89.863281 -66.953125 97.125 -62.90625 101.84375 -56.9375 C 106.570312 -50.96875 108.9375 -43.691406 108.9375 -35.109375 C 108.9375 -22.535156 104.328125 -12.976562 95.109375 -6.4375 C 85.890625 0.101562 73.898438 3.375 59.140625 3.375 C 47.898438 3.375 39.035156 1.929688 32.546875 -0.953125 C 26.066406 -3.835938 20.316406 -8.421875 15.296875 -14.703125 C 10.285156 -20.984375 7.78125 -29.773438 7.78125 -41.078125 L 23.859375 -41.078125 C 23.859375 -31.617188 27 -24.296875 33.28125 -19.109375 C 39.570312 -13.921875 48.132812 -11.328125 58.96875 -11.328125 C 69.457031 -11.328125 77.625 -13.1875 83.46875 -16.90625 C 89.320312 -20.625 92.25 -25.910156 92.25 -32.765625 C 92.25 -38.992188 90.503906 -43.648438 87.015625 -46.734375 C 83.535156 -49.816406 76.722656 -52.539062 66.578125 -54.90625 L 39.171875 -61.296875 C 30.054688 -63.378906 23.25 -67 18.75 -72.15625 C 14.257812 -77.3125 12.015625 -83.664062 12.015625 -91.21875 C 12.015625 -102.632812 15.863281 -112.03125 23.5625 -119.40625 C 31.257812 -126.78125 41.992188 -130.46875 55.765625 -130.46875 C 71.328125 -130.46875 83.332031 -127.222656 91.78125 -120.734375 C 100.226562 -114.253906 104.769531 -103.984375 105.40625 -89.921875 Z M 89.234375 -89.921875 "/></g></g></g><g clip-path="url(#0d2ae43e71)"><path fill="#fbfaf9" d="M 37.5 197.632812 L 314.980469 197.632812 L 314.980469 223.191406 L 37.5 223.191406 Z M 37.5 197.632812 " fill-opacity="1" fill-rule="nonzero"/></g><g fill="#ff3131" fill-opacity="1"><g transform="translate(75.937073, 213.03816)"><g><path d="M 1.9375 -0.984375 L 4.734375 -0.984375 L 4.734375 0 L 0.84375 0 L 0.84375 -6.453125 L 1.9375 -6.453125 Z M 1.9375 -0.984375 "/></g></g></g><g fill="#ff3131" fill-opacity="1"><g transform="translate(86.849499, 213.03816)"><g><path d="M 5.015625 -1.453125 L 1.765625 -1.453125 L 1.140625 0 L 0.015625 0 L 2.859375 -6.453125 L 3.96875 -6.453125 L 6.796875 0 L 5.625 0 Z M 4.59375 -2.421875 L 3.390625 -5.296875 L 2.171875 -2.421875 Z M 4.59375 -2.421875 "/></g></g></g><g fill="#ff3131" fill-opacity="1"><g transform="translate(99.640941, 213.03816)"><g><path d="M 5.15625 0 L 3.03125 -2.84375 L 1.9375 -1.640625 L 1.9375 0 L 0.84375 0 L 0.84375 -6.453125 L 1.9375 -6.453125 L 1.9375 -3.109375 L 5.015625 -6.453125 L 6.296875 -6.453125 L 3.796875 -3.703125 L 6.46875 0 Z M 5.15625 0 "/></g></g></g><g fill="#ff3131" fill-opacity="1"><g transform="translate(112.248167, 213.03816)"><g><path d="M 2.96875 -6.5 C 3.800781 -6.5 4.554688 -6.273438 5.234375 -5.828125 L 4.78125 -4.875 C 4.113281 -5.269531 3.484375 -5.46875 2.890625 -5.46875 C 2.554688 -5.46875 2.296875 -5.410156 2.109375 -5.296875 C 1.921875 -5.179688 1.828125 -5.015625 1.828125 -4.796875 C 1.828125 -4.585938 1.910156 -4.40625 2.078125 -4.25 C 2.253906 -4.101562 2.472656 -3.992188 2.734375 -3.921875 C 2.992188 -3.847656 3.273438 -3.757812 3.578125 -3.65625 C 3.878906 -3.550781 4.15625 -3.4375 4.40625 -3.3125 C 4.664062 -3.195312 4.878906 -3.007812 5.046875 -2.75 C 5.222656 -2.5 5.3125 -2.191406 5.3125 -1.828125 C 5.3125 -1.265625 5.082031 -0.8125 4.625 -0.46875 C 4.175781 -0.132812 3.59375 0.03125 2.875 0.03125 C 2.382812 0.03125 1.90625 -0.0546875 1.4375 -0.234375 C 0.976562 -0.421875 0.578125 -0.671875 0.234375 -0.984375 L 0.703125 -1.921875 C 1.035156 -1.617188 1.394531 -1.382812 1.78125 -1.21875 C 2.175781 -1.0625 2.546875 -0.984375 2.890625 -0.984375 C 3.273438 -0.984375 3.570312 -1.050781 3.78125 -1.1875 C 4 -1.332031 4.109375 -1.523438 4.109375 -1.765625 C 4.109375 -1.992188 4.019531 -2.179688 3.84375 -2.328125 C 3.675781 -2.472656 3.460938 -2.582031 3.203125 -2.65625 C 2.941406 -2.726562 2.660156 -2.8125 2.359375 -2.90625 C 2.054688 -3.007812 1.773438 -3.117188 1.515625 -3.234375 C 1.265625 -3.347656 1.050781 -3.53125 0.875 -3.78125 C 0.707031 -4.039062 0.625 -4.347656 0.625 -4.703125 C 0.625 -5.242188 0.835938 -5.675781 1.265625 -6 C 1.691406 -6.332031 2.257812 -6.5 2.96875 -6.5 Z M 2.96875 -6.5 "/></g></g></g><g fill="#ff3131" fill-opacity="1"><g transform="translate(123.971156, 213.03816)"><g><path d="M 6.4375 0 L 5.359375 0 L 5.359375 -2.671875 L 1.9375 -2.671875 L 1.9375 0 L 0.84375 0 L 0.84375 -6.453125 L 1.9375 -6.453125 L 1.9375 -3.65625 L 5.359375 -3.65625 L 5.359375 -6.453125 L 6.4375 -6.453125 Z M 6.4375 0 "/></g></g></g><g fill="#ff3131" fill-opacity="1"><g transform="translate(137.250782, 213.03816)"><g><path d="M 7.671875 0 L 6.671875 0 L 6.65625 -4.828125 L 4.625 -0.671875 L 3.90625 -0.671875 L 1.875 -4.828125 L 1.875 0 L 0.84375 0 L 0.84375 -6.453125 L 2.140625 -6.453125 L 4.265625 -2.171875 L 6.390625 -6.453125 L 7.671875 -6.453125 Z M 7.671875 0 "/></g></g></g><g fill="#ff3131" fill-opacity="1"><g transform="translate(151.764665, 213.03816)"><g><path d="M 5.015625 -1.453125 L 1.765625 -1.453125 L 1.140625 0 L 0.015625 0 L 2.859375 -6.453125 L 3.96875 -6.453125 L 6.796875 0 L 5.625 0 Z M 4.59375 -2.421875 L 3.390625 -5.296875 L 2.171875 -2.421875 Z M 4.59375 -2.421875 "/></g></g></g><g fill="#ff3131" fill-opacity="1"><g transform="translate(164.556109, 213.03816)"><g><path d="M 6.4375 0 L 5.375 0 L 1.9375 -4.625 L 1.9375 0 L 0.84375 0 L 0.84375 -6.453125 L 1.921875 -6.453125 L 5.375 -1.8125 L 5.375 -6.453125 L 6.4375 -6.453125 Z M 6.4375 0 "/></g></g></g><g fill="#ff3131" fill-opacity="1"><g transform="translate(177.844942, 213.03816)"><g/></g></g><g fill="#ff3131" fill-opacity="1"><g transform="translate(186.215161, 213.03816)"><g><path d="M 2.96875 -6.5 C 3.800781 -6.5 4.554688 -6.273438 5.234375 -5.828125 L 4.78125 -4.875 C 4.113281 -5.269531 3.484375 -5.46875 2.890625 -5.46875 C 2.554688 -5.46875 2.296875 -5.410156 2.109375 -5.296875 C 1.921875 -5.179688 1.828125 -5.015625 1.828125 -4.796875 C 1.828125 -4.585938 1.910156 -4.40625 2.078125 -4.25 C 2.253906 -4.101562 2.472656 -3.992188 2.734375 -3.921875 C 2.992188 -3.847656 3.273438 -3.757812 3.578125 -3.65625 C 3.878906 -3.550781 4.15625 -3.4375 4.40625 -3.3125 C 4.664062 -3.195312 4.878906 -3.007812 5.046875 -2.75 C 5.222656 -2.5 5.3125 -2.191406 5.3125 -1.828125 C 5.3125 -1.265625 5.082031 -0.8125 4.625 -0.46875 C 4.175781 -0.132812 3.59375 0.03125 2.875 0.03125 C 2.382812 0.03125 1.90625 -0.0546875 1.4375 -0.234375 C 0.976562 -0.421875 0.578125 -0.671875 0.234375 -0.984375 L 0.703125 -1.921875 C 1.035156 -1.617188 1.394531 -1.382812 1.78125 -1.21875 C 2.175781 -1.0625 2.546875 -0.984375 2.890625 -0.984375 C 3.273438 -0.984375 3.570312 -1.050781 3.78125 -1.1875 C 4 -1.332031 4.109375 -1.523438 4.109375 -1.765625 C 4.109375 -1.992188 4.019531 -2.179688 3.84375 -2.328125 C 3.675781 -2.472656 3.460938 -2.582031 3.203125 -2.65625 C 2.941406 -2.726562 2.660156 -2.8125 2.359375 -2.90625 C 2.054688 -3.007812 1.773438 -3.117188 1.515625 -3.234375 C 1.265625 -3.347656 1.050781 -3.53125 0.875 -3.78125 C 0.707031 -4.039062 0.625 -4.347656 0.625 -4.703125 C 0.625 -5.242188 0.835938 -5.675781 1.265625 -6 C 1.691406 -6.332031 2.257812 -6.5 2.96875 -6.5 Z M 2.96875 -6.5 "/></g></g></g><g fill="#ff3131" fill-opacity="1"><g transform="translate(197.938145, 213.03816)"><g><path d="M 6.4375 0 L 5.359375 0 L 5.359375 -2.671875 L 1.9375 -2.671875 L 1.9375 0 L 0.84375 0 L 0.84375 -6.453125 L 1.9375 -6.453125 L 1.9375 -3.65625 L 5.359375 -3.65625 L 5.359375 -6.453125 L 6.4375 -6.453125 Z M 6.4375 0 "/></g></g></g><g fill="#ff3131" fill-opacity="1"><g transform="translate(211.217765, 213.03816)"><g><path d="M 5.015625 -1.453125 L 1.765625 -1.453125 L 1.140625 0 L 0.015625 0 L 2.859375 -6.453125 L 3.96875 -6.453125 L 6.796875 0 L 5.625 0 Z M 4.59375 -2.421875 L 3.390625 -5.296875 L 2.171875 -2.421875 Z M 4.59375 -2.421875 "/></g></g></g><g fill="#ff3131" fill-opacity="1"><g transform="translate(224.009203, 213.03816)"><g><path d="M 6.4375 0 L 5.375 0 L 1.9375 -4.625 L 1.9375 0 L 0.84375 0 L 0.84375 -6.453125 L 1.921875 -6.453125 L 5.375 -1.8125 L 5.375 -6.453125 L 6.4375 -6.453125 Z M 6.4375 0 "/></g></g></g><g fill="#ff3131" fill-opacity="1"><g transform="translate(237.298036, 213.03816)"><g><path d="M 7.671875 0 L 6.671875 0 L 6.65625 -4.828125 L 4.625 -0.671875 L 3.90625 -0.671875 L 1.875 -4.828125 L 1.875 0 L 0.84375 0 L 0.84375 -6.453125 L 2.140625 -6.453125 L 4.265625 -2.171875 L 6.390625 -6.453125 L 7.671875 -6.453125 Z M 7.671875 0 "/></g></g></g><g fill="#ff3131" fill-opacity="1"><g transform="translate(251.811913, 213.03816)"><g><path d="M 6.328125 -6.453125 L 6.328125 -2.671875 C 6.328125 -1.828125 6.078125 -1.160156 5.578125 -0.671875 C 5.085938 -0.191406 4.40625 0.046875 3.53125 0.046875 C 2.65625 0.046875 1.96875 -0.191406 1.46875 -0.671875 C 0.96875 -1.160156 0.71875 -1.828125 0.71875 -2.671875 L 0.71875 -6.453125 L 1.8125 -6.453125 L 1.8125 -2.671875 C 1.8125 -2.128906 1.960938 -1.703125 2.265625 -1.390625 C 2.578125 -1.085938 3.003906 -0.9375 3.546875 -0.9375 C 4.066406 -0.9375 4.476562 -1.085938 4.78125 -1.390625 C 5.09375 -1.703125 5.25 -2.128906 5.25 -2.671875 L 5.25 -6.453125 Z M 6.328125 -6.453125 "/></g></g></g><g fill="#ff3131" fill-opacity="1"><g transform="translate(264.842841, 213.03816)"><g><path d="M 5.265625 -3.171875 L 6.21875 -3.171875 L 6.21875 -0.796875 C 5.882812 -0.546875 5.488281 -0.34375 5.03125 -0.1875 C 4.582031 -0.03125 4.140625 0.046875 3.703125 0.046875 C 2.753906 0.046875 1.953125 -0.265625 1.296875 -0.890625 C 0.640625 -1.523438 0.3125 -2.300781 0.3125 -3.21875 C 0.3125 -4.144531 0.640625 -4.921875 1.296875 -5.546875 C 1.960938 -6.171875 2.785156 -6.484375 3.765625 -6.484375 C 4.222656 -6.484375 4.671875 -6.398438 5.109375 -6.234375 C 5.546875 -6.066406 5.925781 -5.847656 6.25 -5.578125 L 5.625 -4.78125 C 5.101562 -5.269531 4.484375 -5.515625 3.765625 -5.515625 C 3.109375 -5.515625 2.550781 -5.289062 2.09375 -4.84375 C 1.644531 -4.40625 1.421875 -3.863281 1.421875 -3.21875 C 1.421875 -2.582031 1.648438 -2.039062 2.109375 -1.59375 C 2.566406 -1.15625 3.125 -0.9375 3.78125 -0.9375 C 4.28125 -0.9375 4.773438 -1.082031 5.265625 -1.375 Z M 5.265625 -3.171875 "/></g></g></g><g fill="#ff3131" fill-opacity="1"><g transform="translate(277.735605, 213.03816)"><g><path d="M 5.015625 -1.453125 L 1.765625 -1.453125 L 1.140625 0 L 0.015625 0 L 2.859375 -6.453125 L 3.96875 -6.453125 L 6.796875 0 L 5.625 0 Z M 4.59375 -2.421875 L 3.390625 -5.296875 L 2.171875 -2.421875 Z M 4.59375 -2.421875 "/></g></g></g><g fill="#ff3131" fill-opacity="1"><g transform="translate(290.527055, 213.03816)"><g><path d="M 7.671875 0 L 6.671875 0 L 6.65625 -4.828125 L 4.625 -0.671875 L 3.90625 -0.671875 L 1.875 -4.828125 L 1.875 0 L 0.84375 0 L 0.84375 -6.453125 L 2.140625 -6.453125 L 4.265625 -2.171875 L 6.390625 -6.453125 L 7.671875 -6.453125 Z M 7.671875 0 "/></g></g></g></svg>